<svg width="40" height="40" viewBox="0 0 40 40" fill="none" xmlns="http://www.w3.org/2000/svg">
<g clip-path="url(#clip0_20_386)">
<path d="M20 40C31.0457 40 40 31.0457 40 20C40 8.95431 31.0457 0 20 0C8.95431 0 0 8.95431 0 20C0 31.0457 8.95431 40 20 40Z" fill="black"/>
<path d="M19.7982 36.6866C19.0979 34.5806 18.6477 33.0449 18.418 32.0155C17.5112 27.9616 17.4523 23.931 18.2251 19.8705C18.3688 19.15 19.1326 16.9165 19.5148 16.1244C20.0331 15.0343 21.2025 12.7908 21.2257 12.823C21.2356 12.8443 21.0797 13.2001 20.8664 13.6234C20.2948 14.7942 19.0624 18.4728 18.8279 19.7089C18.4064 21.9919 18.2631 23.787 18.3232 25.9878C18.3611 27.1532 18.4969 28.7324 18.5782 28.8449C18.6305 28.9174 19.2039 28.6918 19.5712 28.4434C19.8527 28.2461 20.2332 27.7842 20.3282 27.5063C20.3891 27.328 20.3811 27.3014 20.2335 27.2824C20.1446 27.2674 20.078 27.237 20.087 27.2107C20.0978 27.1793 20.3765 26.9396 20.7058 26.6772C21.5859 25.9803 21.8125 25.6681 22.2063 24.6916C22.4287 24.1417 22.5138 23.8425 22.4683 23.8258C22.4227 23.809 22.2603 23.8082 22.0927 23.8231C21.2578 23.8873 21.2654 23.8901 21.6908 23.7222C22.371 23.4594 22.8389 22.9173 23.1236 22.0599C23.2562 21.6719 23.2581 21.6667 23.0858 21.7448C22.6385 21.952 22.5984 21.9194 22.9804 21.6529C23.2953 21.4325 23.4305 21.2874 23.53 21.0466C23.6079 20.8687 23.643 20.7163 23.6126 20.7051C23.5822 20.6939 23.4476 20.7624 23.3057 20.8517C23.1639 20.9412 22.9187 21.0575 22.7649 21.107L22.4759 21.2013L22.8356 20.9501C23.7118 20.3401 24.0462 19.8376 24.3079 18.7474L24.4644 18.1143L24.2314 18.1701C24.1017 18.1991 23.8616 18.2759 23.7099 18.3439C23.3092 18.5151 23.3646 18.4528 23.935 18.0609C24.6398 17.5767 25.0282 17.2417 25.2896 16.8775C25.5586 16.5162 25.6975 16.16 25.5912 16.1208C25.462 16.0732 24.0776 16.2182 23.444 16.3448C23.0959 16.4113 22.825 16.4531 22.8321 16.4322C22.8519 16.3745 23.7402 16.0289 24.5413 15.7632C25.378 15.4931 25.5874 15.3814 25.7785 15.0976C25.8963 14.9285 26.2118 13.5806 26.2674 12.9929L26.2882 12.7821L25.768 12.9269L25.2478 13.0717L25.5744 12.8674C26.0616 12.5687 26.5303 12.0743 26.7489 11.6353C26.8563 11.4211 26.919 11.2375 26.8963 11.2291C26.8735 11.2207 26.656 11.3059 26.4034 11.4194C25.9579 11.6212 25.1971 11.819 25.1524 11.7494C25.1332 11.7305 25.344 11.5898 25.6092 11.4396C27.001 10.6478 27.0909 10.5098 26.9533 9.46123L26.864 8.79658L26.6422 8.8447L26.4186 8.89806L26.5422 8.73696C26.8245 8.38646 26.9154 7.87085 26.8127 7.09502C26.7639 6.68735 26.7169 6.27443 26.7246 6.1769L26.7252 6L25.7771 6.27042C24.6863 6.5827 24.1361 6.84041 23.5034 7.33929C23.2578 7.53213 23.0305 7.69632 22.9965 7.69561C22.9625 7.69489 23.0427 7.53551 23.1712 7.33491C23.3073 7.13711 23.4041 6.95432 23.3849 6.93542C23.3326 6.86303 22.1241 7.24413 21.8968 7.40832C21.5913 7.62629 21.45 8.06427 21.4058 8.96903C21.3827 9.36197 21.3546 9.69408 21.3376 9.69373C21.3189 9.69861 21.2445 9.34057 21.1725 8.90073C21.1023 8.45564 21.0216 8.06578 21.0002 8.02837C20.9537 7.96401 19.5969 8.70371 19.1893 9.01988C18.9232 9.22286 18.8975 9.37282 19.0097 9.94553C19.0569 10.1578 19.0751 10.3298 19.0563 10.3347C19.0358 10.3448 18.8896 10.1965 18.7355 10.0216C18.5832 9.84147 18.4429 9.7012 18.4317 9.70888C18.3101 9.76441 18.1119 9.96881 18.0742 10.0789C18.0491 10.1523 18.1342 10.4789 18.2551 10.801C18.3836 11.1258 18.4634 11.3678 18.4365 11.3461C18.4098 11.3244 18.3026 11.2376 18.1935 11.1561C17.9656 10.9718 17.9035 10.9784 17.9471 11.2011C17.9706 11.3574 17.9688 11.3626 17.8384 11.2437C17.5007 10.9302 17.4184 10.8704 17.3603 10.8903C17.2158 10.9374 16.3429 12.1389 16.2461 12.422C16.1761 12.6265 16.2245 12.91 16.5482 14.1157C16.6835 14.6202 16.794 15.0979 16.7993 15.1825C16.8036 15.3198 16.7827 15.3062 16.6273 15.06C16.5398 14.9155 16.2787 14.4533 16.0599 14.0419C15.843 13.6255 15.6443 13.2806 15.6139 13.2694C15.5379 13.2414 15.2956 13.7248 14.8999 14.7066C14.5061 15.6832 14.4501 16.1468 14.6435 16.8321C14.7666 17.2731 14.8773 17.4496 15.725 18.5237C16.0398 18.9291 16.3262 19.318 16.352 19.3924C16.3778 19.467 15.9887 19.1287 15.4642 18.6106C14.9456 18.1007 14.5006 17.7004 14.4631 17.7102C14.3803 17.727 14.1927 19.0511 14.1728 19.7346C14.133 20.8771 14.3376 21.5547 14.9975 22.4771C15.2588 22.839 15.466 23.1338 15.4508 23.1283C15.4432 23.1254 15.1984 22.9407 14.8981 22.7179C14.3931 22.3428 14.3569 22.3235 14.3 22.4148C14.1183 22.6961 14.2682 23.5838 14.5932 24.1346C14.6946 24.3137 14.7767 24.4738 14.7713 24.4896C14.7659 24.5053 14.613 24.5021 14.4351 24.4719C14.0529 24.4137 14.0143 24.4762 14.1634 24.8913C14.298 25.2479 14.3034 25.2322 14.0987 25.1804C13.9489 25.1429 13.9592 25.1879 14.2019 25.6789C14.3487 25.9751 14.6948 26.5396 14.9734 26.9257C15.4342 27.5797 15.4521 27.6277 15.2425 27.515L15.0178 27.3967L15.1701 27.5767C15.384 27.8269 15.8473 28.1984 16.3724 28.5395C17.2429 29.0967 17.3617 29.2998 17.5546 30.4868C18.0393 33.4228 19.4913 37.7838 20.0536 37.9911C20.1067 38.0108 20.1631 37.9961 20.1738 37.9647C20.1864 37.9279 20.0157 37.3513 19.7982 36.6866ZM21.3197 12.6982C21.3023 12.6741 21.3109 12.6241 21.3462 12.5958C21.3833 12.5623 21.4008 12.5864 21.3811 12.6441C21.3689 12.7045 21.3354 12.7276 21.3197 12.6982Z" fill="white"/>
</g>
<defs>
<clipPath id="clip0_20_386">
<rect width="40" height="40" fill="white"/>
</clipPath>
</defs>
</svg>
