<svg width="72" height="73" viewBox="0 0 72 73" fill="none" xmlns="http://www.w3.org/2000/svg">
<path d="M57.6 19.75V7.1875C57.6 6.07691 57.1575 5.0118 56.3699 4.22649C55.5822 3.44118 54.5139 3 53.4 3H11.4C9.17218 3 7.03561 3.88236 5.4603 5.45298C3.885 7.0236 3 9.15381 3 11.375M3 11.375C3 13.5962 3.885 15.7264 5.4603 17.297C7.03561 18.8676 9.17218 19.75 11.4 19.75H61.8C62.9139 19.75 63.9822 20.1912 64.7698 20.9765C65.5575 21.7618 66 22.8269 66 23.9375V36.5M3 11.375V61.625C3 63.8462 3.885 65.9764 5.4603 67.547C7.03561 69.1176 9.17218 70 11.4 70H61.8C62.9139 70 63.9822 69.5588 64.7698 68.7735C65.5575 67.9882 66 66.9231 66 65.8125V53.25M69 36V53H52.3333C50.1232 53 48.0036 52.1045 46.4408 50.5104C44.878 48.9163 44 46.7543 44 44.5C44 42.2457 44.878 40.0837 46.4408 38.4896C48.0036 36.8955 50.1232 36 52.3333 36H69Z" stroke="#5B5B5F" stroke-width="5" stroke-linecap="round" stroke-linejoin="round"/>
</svg>
